<?xml version="1.0" encoding="UTF-8"?>
<svg width="469px" height="488px" viewBox="0 0 469 488" version="1.1" xmlns="http://www.w3.org/2000/svg" xmlns:xlink="http://www.w3.org/1999/xlink">
    <!-- Generator: Sketch 53.2 (72643) - https://sketchapp.com -->
    <title>illus/devicelab/welcome</title>
    <desc>Created with Sketch.</desc>
    <defs>
        <polygon id="path-1" points="0 487 468.047 487 468.047 0.2 0 0.2"></polygon>
    </defs>
    <g id="illus/devicelab/welcome" stroke="none" stroke-width="1" fill="none" fill-rule="evenodd">
        <g id="illus/welcome">
            <g id="ornement" transform="translate(61.000000, 0.800000)">
                <path d="M152.102,290.0235 C152.102,331.8995 118.155,365.8465 76.279,365.8465 C34.402,365.8465 0.455,331.8995 0.455,290.0235 C0.455,248.1475 34.402,214.2005 76.279,214.2005 C118.155,214.2005 152.102,248.1475 152.102,290.0235" id="Fill-1" fill-opacity="0.5" fill="#673AB7"></path>
                <path d="M402.102,76.0235 C402.102,117.8995 368.155,151.8465 326.279,151.8465 C284.402,151.8465 250.455,117.8995 250.455,76.0235 C250.455,34.1475 284.402,0.2005 326.279,0.2005 C368.155,0.2005 402.102,34.1475 402.102,76.0235" id="Fill-3" fill-opacity="0.5" fill="#FFC107"></path>
                <path d="M350.455,321.200236 C350.455,343.29154 332.546568,361.199972 310.455264,361.199972 C288.363432,361.199972 270.455,343.29154 270.455,321.200236 C270.455,299.108932 288.363432,281.2005 310.455264,281.2005 C332.546568,281.2005 350.455,299.108932 350.455,321.200236" id="Fill-3" fill-opacity="0.5" fill="#FFC107"></path>
                <path d="M70.455,11.2002362 C70.455,33.2915404 52.5465679,51.1999725 30.4552638,51.1999725 C8.36343208,51.1999725 -9.545,33.2915404 -9.545,11.2002362 C-9.545,-10.8910679 8.36343208,-28.7995 30.4552638,-28.7995 C52.5465679,-28.7995 70.455,-10.8910679 70.455,11.2002362" id="Fill-3" fill-opacity="0.5" fill="#673AB7"></path>
                <path d="M274.2484,393.2999 L293.2484,393.2999 C294.9054,393.2999 296.2484,394.6429 296.2484,396.2999 L296.2484,453.2999 C296.2484,454.9569 297.5914,456.2999 299.2484,456.2999 L322.2484,456.2999" id="Stroke-5" stroke="#BDBDBD" stroke-width="2"></path>
                <path d="M175.2484,416.3 L198.2484,416.3 C199.9054,416.3 201.2484,414.957 201.2484,413.3 L201.2484,389.3 C201.2484,387.643 202.5914,386.3 204.2484,386.3 L225.2484,386.3" id="Stroke-7" stroke="#BDBDBD" stroke-width="2"></path>
                <path d="M297.2485,258.3 L297.2485,290.3 C297.2485,291.957 295.9055,293.3 294.2485,293.3 L203.2485,293.3 C201.5915,293.3 200.2485,294.643 200.2485,296.3 L200.2485,318.3 C200.2485,319.957 198.9055,321.3 197.2485,321.3 L175.2485,321.3" id="Stroke-9" stroke="#BDBDBD" stroke-width="2"></path>
                <path d="M18.2484,107.3 L42.2484,107.3 C43.9054,107.3 45.2484,108.643 45.2484,110.3 L45.2484,181.3 C45.2484,182.957 46.5914,184.3 48.2484,184.3 L83.2484,184.3" id="Stroke-11" stroke="#BDBDBD" stroke-width="2"></path>
                <path d="M19.85,116.8 C14.612,116.8 10.35,112.538 10.35,107.3 C10.35,102.062 14.612,97.8 19.85,97.8 C25.088,97.8 29.35,102.062 29.35,107.3 C29.35,112.538 25.088,116.8 19.85,116.8" id="Fill-13" fill="#673AB7"></path>
                <path d="M19.85,96.3 C13.785,96.3 8.85,101.235 8.85,107.3 C8.85,113.365 13.785,118.3 19.85,118.3 C25.915,118.3 30.85,113.365 30.85,107.3 C30.85,101.235 25.915,96.3 19.85,96.3 M19.85,99.3 C24.268,99.3 27.85,102.882 27.85,107.3 C27.85,111.718 24.268,115.3 19.85,115.3 C15.432,115.3 11.85,111.718 11.85,107.3 C11.85,102.882 15.432,99.3 19.85,99.3" id="Fill-15" fill="#FFFFFF"></path>
                <path d="M174.8505,330.8 C169.6125,330.8 165.3505,326.538 165.3505,321.3 C165.3505,316.062 169.6125,311.8 174.8505,311.8 C180.0885,311.8 184.3505,316.062 184.3505,321.3 C184.3505,326.538 180.0885,330.8 174.8505,330.8" id="Fill-17" fill="#673AB7"></path>
                <path d="M174.8505,310.3 C168.7855,310.3 163.8505,315.235 163.8505,321.3 C163.8505,327.365 168.7855,332.3 174.8505,332.3 C180.9155,332.3 185.8505,327.365 185.8505,321.3 C185.8505,315.235 180.9155,310.3 174.8505,310.3 M174.8505,313.3 C179.2685,313.3 182.8505,316.882 182.8505,321.3 C182.8505,325.718 179.2685,329.3 174.8505,329.3 C170.4325,329.3 166.8505,325.718 166.8505,321.3 C166.8505,316.882 170.4325,313.3 174.8505,313.3" id="Fill-19" fill="#FFFFFF"></path>
                <path d="M174.8505,425.8 C169.6125,425.8 165.3505,421.538 165.3505,416.3 C165.3505,411.062 169.6125,406.8 174.8505,406.8 C180.0885,406.8 184.3505,411.062 184.3505,416.3 C184.3505,421.538 180.0885,425.8 174.8505,425.8" id="Fill-21" fill="#673AB7"></path>
                <path d="M174.8505,405.3 C168.7855,405.3 163.8505,410.235 163.8505,416.3 C163.8505,422.365 168.7855,427.3 174.8505,427.3 C180.9155,427.3 185.8505,422.365 185.8505,416.3 C185.8505,410.235 180.9155,405.3 174.8505,405.3 M174.8505,408.3 C179.2685,408.3 182.8505,411.882 182.8505,416.3 C182.8505,420.718 179.2685,424.3 174.8505,424.3 C170.4325,424.3 166.8505,420.718 166.8505,416.3 C166.8505,411.882 170.4325,408.3 174.8505,408.3" id="Fill-23" fill="#FFFFFF"></path>
                <path d="M322.8505,465.8 C317.6125,465.8 313.3505,461.538 313.3505,456.3 C313.3505,451.062 317.6125,446.8 322.8505,446.8 C328.0885,446.8 332.3505,451.062 332.3505,456.3 C332.3505,461.538 328.0885,465.8 322.8505,465.8" id="Fill-25" fill="#673AB7"></path>
                <path d="M322.8505,445.3 C316.7855,445.3 311.8505,450.235 311.8505,456.3 C311.8505,462.365 316.7855,467.3 322.8505,467.3 C328.9155,467.3 333.8505,462.365 333.8505,456.3 C333.8505,450.235 328.9155,445.3 322.8505,445.3 M322.8505,448.3 C327.2685,448.3 330.8505,451.882 330.8505,456.3 C330.8505,460.718 327.2685,464.3 322.8505,464.3 C318.4325,464.3 314.8505,460.718 314.8505,456.3 C314.8505,451.882 318.4325,448.3 322.8505,448.3" id="Fill-27" fill="#FFFFFF"></path>
                <path d="M75.85,193.8 C70.612,193.8 66.35,189.538 66.35,184.3 C66.35,179.062 70.612,174.8 75.85,174.8 C81.088,174.8 85.35,179.062 85.35,184.3 C85.35,189.538 81.088,193.8 75.85,193.8" id="Fill-29" fill="#FFC107"></path>
                <path d="M75.85,173.3 C69.785,173.3 64.85,178.235 64.85,184.3 C64.85,190.365 69.785,195.3 75.85,195.3 C81.915,195.3 86.85,190.365 86.85,184.3 C86.85,178.235 81.915,173.3 75.85,173.3 M75.85,176.3 C80.268,176.3 83.85,179.882 83.85,184.3 C83.85,188.718 80.268,192.3 75.85,192.3 C71.432,192.3 67.85,188.718 67.85,184.3 C67.85,179.882 71.432,176.3 75.85,176.3" id="Fill-31" fill="#FFFFFF"></path>
                <path d="M224.85,395.8 C219.612,395.8 215.35,391.538 215.35,386.3 C215.35,381.062 219.612,376.8 224.85,376.8 C230.088,376.8 234.35,381.062 234.35,386.3 C234.35,391.538 230.088,395.8 224.85,395.8" id="Fill-33" fill="#FFC107"></path>
                <path d="M224.85,375.3 C218.785,375.3 213.85,380.235 213.85,386.3 C213.85,392.365 218.785,397.3 224.85,397.3 C230.915,397.3 235.85,392.365 235.85,386.3 C235.85,380.235 230.915,375.3 224.85,375.3 M224.85,378.3 C229.268,378.3 232.85,381.882 232.85,386.3 C232.85,390.718 229.268,394.3 224.85,394.3 C220.432,394.3 216.85,390.718 216.85,386.3 C216.85,381.882 220.432,378.3 224.85,378.3" id="Fill-35" fill="#FFFFFF"></path>
                <path d="M273.85,402.8 C268.612,402.8 264.35,398.538 264.35,393.3 C264.35,388.062 268.612,383.8 273.85,383.8 C279.088,383.8 283.35,388.062 283.35,393.3 C283.35,398.538 279.088,402.8 273.85,402.8" id="Fill-37" fill="#FFC107"></path>
                <path d="M273.85,382.3 C267.785,382.3 262.85,387.235 262.85,393.3 C262.85,399.365 267.785,404.3 273.85,404.3 C279.915,404.3 284.85,399.365 284.85,393.3 C284.85,387.235 279.915,382.3 273.85,382.3 M273.85,385.3 C278.268,385.3 281.85,388.882 281.85,393.3 C281.85,397.718 278.268,401.3 273.85,401.3 C269.432,401.3 265.85,397.718 265.85,393.3 C265.85,388.882 269.432,385.3 273.85,385.3" id="Fill-39" fill="#FFFFFF"></path>
                <path d="M297.2484,267.8 C292.0104,267.8 287.7484,263.538 287.7484,258.3 C287.7484,253.062 292.0104,248.8 297.2484,248.8 C302.4864,248.8 306.7484,253.062 306.7484,258.3 C306.7484,263.538 302.4864,267.8 297.2484,267.8" id="Fill-41" fill="#FFC107"></path>
                <path d="M297.2484,247.3 C291.1834,247.3 286.2484,252.235 286.2484,258.3 C286.2484,264.365 291.1834,269.3 297.2484,269.3 C303.3134,269.3 308.2484,264.365 308.2484,258.3 C308.2484,252.235 303.3134,247.3 297.2484,247.3 M297.2484,250.3 C301.6664,250.3 305.2484,253.882 305.2484,258.3 C305.2484,262.718 301.6664,266.3 297.2484,266.3 C292.8304,266.3 289.2484,262.718 289.2484,258.3 C289.2484,253.882 292.8304,250.3 297.2484,250.3" id="Fill-43" fill="#FFFFFF"></path>
            </g>
            <g id="macboock" transform="translate(0.000000, 0.800000)">
                <path d="M454.0756,258.2484 L115.7186,258.2484 C108.6096,258.2484 102.8466,252.4854 102.8466,245.3774 L102.8466,241.7484 L466.9466,241.7484 L466.9466,245.3774 C466.9466,252.4854 461.1846,258.2484 454.0756,258.2484 Z" id="Fill-46" fill="#BDBDBD"></path>
                <path d="M454.0756,258.2484 L115.7186,258.2484 C108.6096,258.2484 102.8466,252.4854 102.8466,245.3774 L102.8466,241.7484 L466.9466,241.7484 L466.9466,245.3774 C466.9466,252.4854 461.1846,258.2484 454.0756,258.2484 Z" id="Stroke-48" stroke="#212121" stroke-width="2.2"></path>
                <path d="M302.5849,250.5484 L266.1089,250.5484 C261.2969,250.5484 257.3969,246.6484 257.3969,241.8364 L257.3969,241.7484 L311.2969,241.7484 L311.2969,241.8364 C311.2969,246.6484 307.3969,250.5484 302.5849,250.5484" id="Fill-50" fill="#BDBDBD"></path>
                <path d="M302.5849,250.5484 L266.1089,250.5484 C261.2969,250.5484 257.3969,246.6484 257.3969,241.8364 L257.3969,241.7484 L311.2969,241.7484 L311.2969,241.8364 C311.2969,246.6484 307.3969,250.5484 302.5849,250.5484 Z" id="Stroke-52" stroke="#212121" stroke-width="2.2"></path>
                <path d="M433.9469,241.2 L136.9469,241.2 L136.9469,61.458 C136.9469,54.412 142.6589,48.7 149.7049,48.7 L421.1889,48.7 C428.2349,48.7 433.9469,54.412 433.9469,61.458 L433.9469,241.2 Z" id="Fill-54" fill="#BDBDBD"></path>
                <path d="M433.9469,241.2 L136.9469,241.2 L136.9469,61.458 C136.9469,54.412 142.6589,48.7 149.7049,48.7 L421.1889,48.7 C428.2349,48.7 433.9469,54.412 433.9469,61.458 L433.9469,241.2 Z" id="Stroke-56" stroke="#212121" stroke-width="2.2"></path>
                <path d="M288.3802,55.5 C288.3802,57.12 287.0672,58.433 285.4472,58.433 C283.8272,58.433 282.5132,57.12 282.5132,55.5 C282.5132,53.88 283.8272,52.567 285.4472,52.567 C287.0672,52.567 288.3802,53.88 288.3802,55.5" id="Fill-58" fill="#212121"></path>
                <mask id="mask-2" fill="white">
                    <use xlink:href="#path-1"></use>
                </mask>
                <g id="Clip-61"></g>
                <polygon id="Fill-60" fill="#FFC107" mask="url(#mask-2)" points="150.248 233.3 420.248 233.3 420.248 63.3 150.248 63.3"></polygon>
                <polygon id="Stroke-62" stroke="#212121" stroke-width="2" mask="url(#mask-2)" points="150.248 233.3 420.248 233.3 420.248 63.3 150.248 63.3"></polygon>
                <polygon id="Fill-63" fill="#FFFFFF" mask="url(#mask-2)" points="213.029 100.1052 275.311 100.1052 275.311 121.4592 238.536 121.4592 238.536 136.5842 269.973 136.5842 269.973 157.9382 238.536 157.9382 238.536 175.1412 276.794 175.1412 276.794 196.4952 213.029 196.4952"></polygon>
                <polygon id="Fill-64" fill="#FFFFFF" mask="url(#mask-2)" points="295.4819 100.1052 320.9869 100.1052 320.9869 175.1412 357.4679 175.1412 357.4679 196.4952 295.4819 196.4952"></polygon>
            </g>
            <g id="android" transform="translate(383.000000, 331.800000)">
                <path d="M75.159,154.9 L6.435,154.9 C3.238,154.9 0.647,152.309 0.647,149.112 L0.647,6.688 C0.647,3.491 3.238,0.9 6.435,0.9 L75.159,0.9 C78.356,0.9 80.947,3.491 80.947,6.688 L80.947,149.112 C80.947,152.309 78.356,154.9 75.159,154.9" id="Fill-65" fill="#BDBDBD"></path>
                <path d="M75.159,154.9 L6.435,154.9 C3.238,154.9 0.647,152.309 0.647,149.112 L0.647,6.688 C0.647,3.491 3.238,0.9 6.435,0.9 L75.159,0.9 C78.356,0.9 80.947,3.491 80.947,6.688 L80.947,149.112 C80.947,152.309 78.356,154.9 75.159,154.9 Z" id="Stroke-66" stroke="#212121" stroke-width="2.2"></path>
                <path d="M26.2484,9.8 L60.2484,9.8" id="Stroke-67" stroke="#757575" stroke-linecap="round" stroke-linejoin="round"></path>
                <path d="M20.2484,9.8 L21.2484,9.8" id="Stroke-68" stroke="#757575" stroke-linecap="round" stroke-linejoin="round"></path>
                <polygon id="Fill-69" fill="#673AB7" points="5.248 139.3 75.248 139.3 75.248 18.3 5.248 18.3"></polygon>
                <path d="M4.248,140.3 L76.248,140.3 L76.248,17.3 L4.248,17.3 L4.248,140.3 Z M6.248,138.3 L74.248,138.3 L74.248,19.3 L6.248,19.3 L6.248,138.3 Z" id="Fill-70" fill="#212121"></path>
                <polygon id="Fill-71" fill="#FFFFFF" points="21.1635 49.945 58.7115 49.945 58.7115 62.819 36.5395 62.819 36.5395 71.937 55.4935 71.937 55.4935 84.811 36.5395 84.811 36.5395 95.181 59.6055 95.181 59.6055 108.055 21.1635 108.055"></polygon>
                <path d="M31.2484,147.8 L50.2484,147.8" id="Stroke-72" stroke="#757575" stroke-linecap="round" stroke-linejoin="round"></path>
            </g>
            <g id="iphone" transform="translate(0.000000, 2.800000)">
                <path d="M1.1,23.855 L3.3,23.855 C3.604,23.855 3.85,23.609 3.85,23.305 L3.85,20.005 C3.85,19.701 3.604,19.455 3.3,19.455 L1.1,19.455 C0.796,19.455 0.55,19.701 0.55,20.005 L0.55,23.305 C0.55,23.609 0.796,23.855 1.1,23.855" id="Fill-73" fill="#D1C4E9"></path>
                <path d="M1.1,23.855 L3.3,23.855 C3.604,23.855 3.85,23.609 3.85,23.305 L3.85,20.005 C3.85,19.701 3.604,19.455 3.3,19.455 L1.1,19.455 C0.796,19.455 0.55,19.701 0.55,20.005 L0.55,23.305 C0.55,23.609 0.796,23.855 1.1,23.855 Z" id="Stroke-74" stroke="#212121" stroke-width="1.1"></path>
                <path d="M1.1,41.455 L3.3,41.455 C3.604,41.455 3.85,41.209 3.85,40.905 L3.85,31.005 C3.85,30.701 3.604,30.455 3.3,30.455 L1.1,30.455 C0.796,30.455 0.55,30.701 0.55,31.005 L0.55,40.905 C0.55,41.209 0.796,41.455 1.1,41.455" id="Fill-75" fill="#D1C4E9"></path>
                <path d="M1.1,41.455 L3.3,41.455 C3.604,41.455 3.85,41.209 3.85,40.905 L3.85,31.005 C3.85,30.701 3.604,30.455 3.3,30.455 L1.1,30.455 C0.796,30.455 0.55,30.701 0.55,31.005 L0.55,40.905 C0.55,41.209 0.796,41.455 1.1,41.455 Z" id="Stroke-76" stroke="#212121" stroke-width="1.1"></path>
                <path d="M83.6,41.455 L81.4,41.455 C81.096,41.455 80.85,41.209 80.85,40.905 L80.85,33.205 C80.85,32.901 81.096,32.655 81.4,32.655 L83.6,32.655 C83.904,32.655 84.15,32.901 84.15,33.205 L84.15,40.905 C84.15,41.209 83.904,41.455 83.6,41.455" id="Fill-77" fill="#D1C4E9"></path>
                <path d="M83.6,41.455 L81.4,41.455 C81.096,41.455 80.85,41.209 80.85,40.905 L80.85,33.205 C80.85,32.901 81.096,32.655 81.4,32.655 L83.6,32.655 C83.904,32.655 84.15,32.901 84.15,33.205 L84.15,40.905 C84.15,41.209 83.904,41.455 83.6,41.455 Z" id="Stroke-78" stroke="#212121" stroke-width="1.1"></path>
                <path d="M1.1,43.655 L3.3,43.655 C3.604,43.655 3.85,43.901 3.85,44.205 L3.85,53.005 C3.85,53.309 3.604,53.555 3.3,53.555 L1.1,53.555 C0.796,53.555 0.55,53.309 0.55,53.005 L0.55,44.205 C0.55,43.901 0.796,43.655 1.1,43.655" id="Fill-79" fill="#D1C4E9"></path>
                <path d="M1.1,43.655 L3.3,43.655 C3.604,43.655 3.85,43.901 3.85,44.205 L3.85,53.005 C3.85,53.309 3.604,53.555 3.3,53.555 L1.1,53.555 C0.796,53.555 0.55,53.309 0.55,53.005 L0.55,44.205 C0.55,43.901 0.796,43.655 1.1,43.655 Z" id="Stroke-80" stroke="#212121" stroke-width="1.1"></path>
                <path d="M69.2858,150.3 L15.7078,150.3 C9.2908,150.3 4.0888,144.937 4.0888,138.32 L4.0888,12.68 C4.0888,6.063 9.2908,0.7 15.7078,0.7 L69.2858,0.7 C75.7028,0.7 80.9048,6.063 80.9048,12.68 L80.9048,138.32 C80.9048,144.937 75.7028,150.3 69.2858,150.3" id="Fill-81" fill="#BDBDBD"></path>
                <path d="M69.2858,150.3 L15.7078,150.3 C9.2908,150.3 4.0888,144.937 4.0888,138.32 L4.0888,12.68 C4.0888,6.063 9.2908,0.7 15.7078,0.7 L69.2858,0.7 C75.7028,0.7 80.9048,6.063 80.9048,12.68 L80.9048,138.32 C80.9048,144.937 75.7028,150.3 69.2858,150.3 Z" id="Stroke-82" stroke="#212121" stroke-width="2.2"></path>
                <path d="M33.2484,13.8 L55.2484,13.8" id="Stroke-83" stroke="#757575" stroke-linecap="round" stroke-linejoin="round"></path>
                <path d="M43.2484,13.8 L44.2484,13.8" id="Stroke-84" stroke="#868A96" stroke-linecap="round" stroke-linejoin="round"></path>
                <path d="M29.2484,13.8 L30.2484,13.8" id="Stroke-85" stroke="#868A96" stroke-linecap="round" stroke-linejoin="round"></path>
                <path d="M75.9,129.455 L8.8,129.455 C8.496,129.455 8.25,129.209 8.25,128.905 L8.25,20.005 C8.25,19.701 8.496,19.455 8.8,19.455 L75.9,19.455 C76.204,19.455 76.45,19.701 76.45,20.005 L76.45,128.905 C76.45,129.209 76.204,129.455 75.9,129.455" id="Fill-89" fill="#673AB7"></path>
                <path d="M75.9,129.455 L8.8,129.455 C8.496,129.455 8.25,129.209 8.25,128.905 L8.25,20.005 C8.25,19.701 8.496,19.455 8.8,19.455 L75.9,19.455 C76.204,19.455 76.45,19.701 76.45,20.005 L76.45,128.905 C76.45,129.209 76.204,129.455 75.9,129.455 Z" id="Stroke-90" stroke="#212121" stroke-width="2.2"></path>
                <path d="M46.8864,135.4838 C51.7034,141.9218 44.4764,149.1478 38.0384,144.3318 C37.9954,144.2988 37.9564,144.2598 37.9234,144.2158 C33.1064,137.7788 40.3334,130.5518 46.7714,135.3688 C46.8144,135.4008 46.8544,135.4408 46.8864,135.4838" id="Fill-91" fill="#757575"></path>
                <path d="M22.4516,58.3678 L31.1636,58.3678 L32.9456,72.4258 C33.2916,75.7918 33.6876,79.1578 34.0346,82.5228 L34.2326,82.5228 C34.8266,79.1578 35.4206,75.7418 36.0136,72.4258 L39.0836,58.3678 L46.2106,58.3678 L49.2796,72.4258 C49.8736,75.6428 50.4676,79.1078 51.0616,82.5228 L51.2596,82.5228 C51.6066,79.1078 52.0026,75.6928 52.3486,72.4258 L54.1306,58.3678 L62.2486,58.3678 L56.9026,90.5418 L46.1116,90.5418 L43.6366,77.7718 C43.1416,75.2958 42.7466,72.6238 42.4486,70.2478 L42.2516,70.2478 C41.9046,72.6238 41.5576,75.2958 41.0636,77.7718 L38.6876,90.5418 L28.0946,90.5418 L22.4516,58.3678 Z" id="Fill-92" fill="#FFFFFF"></path>
            </g>
            <g id="ipad" transform="translate(8.000000, 292.800000)">
                <path d="M0.25,138.6155 L0.25,14.3175 C0.25,6.6175 6.686,0.3745 14.626,0.3745 L213.397,0.3745 C221.337,0.3745 227.773,6.6175 227.773,14.3175 L227.773,138.6155 C227.773,146.3165 221.337,152.5585 213.397,152.5585 L14.626,152.5585 C6.686,152.5585 0.25,146.3165 0.25,138.6155" id="Fill-93" fill="#BDBDBD"></path>
                <path d="M0.25,138.6155 L0.25,14.3175 C0.25,6.6175 6.686,0.3745 14.626,0.3745 L213.397,0.3745 C221.337,0.3745 227.773,6.6175 227.773,14.3175 L227.773,138.6155 C227.773,146.3165 221.337,152.5585 213.397,152.5585 L14.626,152.5585 C6.686,152.5585 0.25,146.3165 0.25,138.6155 Z" id="Stroke-94" stroke="#212121" stroke-width="2.2"></path>
                <path d="M30.25,139.2368 L30.25,13.3448 C30.25,13.0178 30.548,12.7528 30.917,12.7528 L211.383,12.7528 C211.752,12.7528 212.05,13.0178 212.05,13.3448 L212.05,139.2368 C212.05,139.5638 211.752,139.8278 211.383,139.8278 L30.917,139.8278 C30.548,139.8278 30.25,139.5638 30.25,139.2368" id="Fill-95" fill="#673AB7"></path>
                <path d="M30.25,139.2368 L30.25,13.3448 C30.25,13.0178 30.548,12.7528 30.917,12.7528 L211.383,12.7528 C211.752,12.7528 212.05,13.0178 212.05,13.3448 L212.05,139.2368 C212.05,139.5638 211.752,139.8278 211.383,139.8278 L30.917,139.8278 C30.548,139.8278 30.25,139.5638 30.25,139.2368 Z" id="Stroke-96" stroke="#212121" stroke-width="2.093"></path>
                <path d="M20.4296,81.6684 C12.7046,87.4484 4.0326,78.7764 9.8126,71.0514 C9.8516,70.9994 9.8986,70.9524 9.9506,70.9134 C17.6756,65.1324 26.3476,73.8054 20.5676,81.5304 C20.5286,81.5824 20.4816,81.6294 20.4296,81.6684" id="Fill-97" fill="#757575"></path>
                <path d="M98.5786,46.6945 C105.7806,46.6945 111.9276,50.2075 115.9676,54.2475 L107.7126,63.5565 C104.9016,61.0975 102.4426,59.6915 98.7546,59.6915 C91.9036,59.6915 86.1076,65.8405 86.1076,76.2035 C86.1076,86.9175 91.0256,92.8895 98.4026,92.8895 C102.7946,92.8895 105.9556,90.9575 108.4146,88.3225 L116.6696,97.4555 C111.8396,103.0765 105.2526,105.8865 98.2266,105.8865 C83.2976,105.8865 70.6506,96.2265 70.6506,76.7295 C70.6506,57.5845 83.8246,46.6945 98.5786,46.6945" id="Fill-98" fill="#FFFFFF"></path>
                <path d="M156.1921,76.0273 C156.1921,65.6643 151.9761,59.6923 145.1261,59.6923 C138.2761,59.6923 134.0611,65.6643 134.0611,76.0273 C134.0611,86.3903 138.2761,92.8893 145.1261,92.8893 C151.9761,92.8893 156.1921,86.3903 156.1921,76.0273 M118.6041,76.0273 C118.6041,57.2333 129.3181,46.6943 145.1261,46.6943 C160.9341,46.6943 171.6491,57.3213 171.6491,76.0273 C171.6491,94.8213 160.9341,105.8873 145.1261,105.8873 C129.3181,105.8873 118.6041,94.8213 118.6041,76.0273" id="Fill-99" fill="#FFFFFF"></path>
            </g>
            <g id="iswatch" transform="translate(285.000000, 343.800000)">
                <path d="M51.3219,36.845 C50.0799,36.845 48.3219,35.054 48.3219,32.845 C48.3219,30.636 50.0799,28.845 51.3219,28.845 L51.3219,36.845 Z" id="Fill-100" fill="#D1C4E9"></path>
                <path d="M51.3219,36.845 C50.0799,36.845 48.3219,35.054 48.3219,32.845 C48.3219,30.636 50.0799,28.845 51.3219,28.845 L51.3219,36.845 Z" id="Stroke-101" stroke="#212121" stroke-width="1.1"></path>
                <path d="M7.3219,16.3 L41.8219,16.3 C41.8219,14.3 37.1609,0.3 35.2069,0.3 L13.9369,0.3 C11.9829,0.3 7.3219,14.3 7.3219,16.3" id="Fill-102" fill="#BDBDBD"></path>
                <path d="M7.3219,16.3 L41.8219,16.3 C41.8219,14.3 37.1609,0.3 35.2069,0.3 L13.9369,0.3 C11.9829,0.3 7.3219,14.3 7.3219,16.3 Z" id="Stroke-103" stroke="#212121" stroke-width="2"></path>
                <path d="M35.2084,87.3 L13.9384,87.3 C11.9784,87.3 7.3184,72.3 7.3184,71.3 L41.8184,71.3 C41.8184,72.3 37.1584,87.3 35.2084,87.3" id="Fill-104" fill="#BDBDBD"></path>
                <path d="M35.2084,87.3 L13.9384,87.3 C11.9784,87.3 7.3184,72.3 7.3184,71.3 L41.8184,71.3 C41.8184,72.3 37.1584,87.3 35.2084,87.3 Z" id="Stroke-105" stroke="#212121" stroke-width="2"></path>
                <path d="M8.3219,15.345 L41.3219,15.345 C45.4639,15.345 48.8219,18.703 48.8219,22.845 L48.8219,63.345 C48.8219,67.487 45.4639,70.845 41.3219,70.845 L8.3219,70.845 C4.1799,70.845 0.8219,67.487 0.8219,63.345 L0.8219,22.845 C0.8219,18.703 4.1799,15.345 8.3219,15.345" id="Fill-106" fill="#BDBDBD"></path>
                <path d="M8.3219,15.345 L41.3219,15.345 C45.4639,15.345 48.8219,18.703 48.8219,22.845 L48.8219,63.345 C48.8219,67.487 45.4639,70.845 41.3219,70.845 L8.3219,70.845 C4.1799,70.845 0.8219,67.487 0.8219,63.345 L0.8219,22.845 C0.8219,18.703 4.1799,15.345 8.3219,15.345 Z" id="Stroke-107" stroke="#212121" stroke-width="2.2"></path>
                <path d="M11.2177,18.4667 L38.4257,18.4667 C42.3127,18.4667 45.4627,21.6177 45.4627,25.5037 L45.4627,60.6867 C45.4627,64.5727 42.3127,67.7237 38.4257,67.7237 L11.2177,67.7237 C7.3317,67.7237 4.1807,64.5727 4.1807,60.6867 L4.1807,25.5037 C4.1807,21.6177 7.3317,18.4667 11.2177,18.4667" id="Fill-108" fill="#FFC107"></path>
                <path d="M11.2177,18.4667 L38.4257,18.4667 C42.3127,18.4667 45.4627,21.6177 45.4627,25.5037 L45.4627,60.6867 C45.4627,64.5727 42.3127,67.7237 38.4257,67.7237 L11.2177,67.7237 C7.3317,67.7237 4.1807,64.5727 4.1807,60.6867 L4.1807,25.5037 C4.1807,21.6177 7.3317,18.4667 11.2177,18.4667 Z" id="Stroke-109" stroke="#212121"></path>
                <path d="M14.7841,32.7712 L20.4381,32.7712 L23.6781,41.3482 L24.8221,44.7152 L24.9491,44.7152 L26.0921,41.3482 L29.2051,32.7712 L34.8601,32.7712 L34.8601,53.4182 L29.7771,53.4182 L29.7771,47.3202 C29.7771,45.2232 30.2221,42.0152 30.4761,39.9502 L30.3491,39.9502 L28.6341,44.7782 L25.7751,51.7352 L23.7421,51.7352 L20.8831,44.7782 L19.2311,39.9502 L19.1041,39.9502 C19.3581,42.0152 19.8031,45.2232 19.8031,47.3202 L19.8031,53.4182 L14.7841,53.4182 L14.7841,32.7712 Z" id="Fill-110" fill="#FFFFFF"></path>
            </g>
        </g>
    </g>
</svg>